<?xml version="1.0" encoding="utf-8"?>
<!-- Generator: Adobe Illustrator 23.0.0, SVG Export Plug-In . SVG Version: 6.00 Build 0)  -->
<svg version="1.1" id="Capa_1" xmlns="http://www.w3.org/2000/svg" xmlns:xlink="http://www.w3.org/1999/xlink" x="0px" y="0px"
	 viewBox="0 0 85 85" style="enable-background:new 0 0 85 85;" xml:space="preserve">
<path d="M67.6,17.8H18.9l-1.1-5.4c-0.3-1.3-1.5-2.3-2.8-2.3H3c-0.8,0-1.4,0.7-1.4,1.5v2.9c0,0.7,0.6,1.3,1.3,1.3h9.7l8.5,42.8
	c-1.3,1.3-2.1,3.1-2.1,5.1c0,4.2,3.4,7.4,7.4,7.4c4.2,0,7.4-3.4,7.4-7.4c0-1.3-0.3-2.6-1-3.6h17.7c-0.6,1.1-1,2.3-1,3.6
	c0,4.2,3.4,7.4,7.4,7.4s7.4-3.4,7.4-7.4c0-2-0.8-3.8-2.1-5.1V57c0-1.4-1.1-2.5-2.5-2.5H26l-1.2-6h37.6c1.2,0,2.3-0.9,2.5-2l5.6-25
	C70.9,19.6,69.5,17.8,67.6,17.8z M26.5,67c-1.7,0-3.2-1.4-3.2-3.2c0-1.7,1.4-3.2,3.2-3.2c1.8,0,3.2,1.4,3.2,3.2S28.3,67,26.5,67z
	 M57.2,67c-1.7,0-3.2-1.4-3.2-3.2c0-1.7,1.4-3.2,3.2-3.2s3.2,1.4,3.2,3.2C60.3,65.6,59,67,57.2,67z M60.1,42.8H23.7L20,23.6h44.2
	L60.1,42.8z"/>
</svg>
