<?xml version="1.0" encoding="utf-8"?>
<!-- Generator: Adobe Illustrator 23.0.0, SVG Export Plug-In . SVG Version: 6.00 Build 0)  -->
<svg version="1.1" id="Capa_1" xmlns="http://www.w3.org/2000/svg" xmlns:xlink="http://www.w3.org/1999/xlink" x="0px" y="0px"
	 viewBox="0 0 85 85" style="enable-background:new 0 0 85 85;" xml:space="preserve">
<path d="M48.4,3.3v78.6c0,1.8-1.4,3.2-3.2,3.2h-5.7c-1.8,0-3.2-1.4-3.2-3.2V3.3c0-1.8,1.4-3.2,3.2-3.2h5.7C47,0.1,48.4,1.5,48.4,3.3
	z"/>
<path d="M81.6,48.4H3.3c-1.8,0-3.2-1.4-3.2-3.2v-5.7c0-1.8,1.4-3.2,3.2-3.2h78.6c1.8,0,3.2,1.4,3.2,3.2v5.7
	C84.8,47,83.4,48.4,81.6,48.4z"/>
</svg>
